# Blender v2.79 (sub 0) OBJ File: 'senzor.blend'
# www.blender.org
mtllib senzor_distanta.mtl
o Cylinder_Cylinder.001
v -0.020000 -0.000000 -0.020000
v 0.020000 -0.000000 -0.020000
v -0.020000 -0.014142 -0.014142
v 0.020000 -0.014142 -0.014142
v -0.020000 -0.020000 -0.000000
v 0.020000 -0.020000 -0.000000
v -0.020000 -0.014142 0.014142
v 0.020000 -0.014142 0.014142
v -0.020000 -0.000000 0.020000
v 0.020000 -0.000000 0.020000
v -0.020000 0.014142 0.014142
v 0.020000 0.014142 0.014142
v -0.020000 0.020000 -0.000000
v 0.020000 0.020000 -0.000000
v -0.020000 0.014142 -0.014142
v 0.020000 0.014142 -0.014142
v -0.024418 -0.000000 -0.080000
v -0.024418 -0.056569 -0.056569
v -0.024418 -0.080000 0.000000
v -0.024418 -0.056569 0.056569
v -0.024418 -0.000000 0.080000
v -0.024418 0.056568 0.056568
v -0.024418 0.080000 -0.000000
v -0.024418 0.056568 -0.056569
v -0.043342 -0.000000 -0.080000
v -0.043342 -0.056569 -0.056569
v -0.043342 -0.080000 0.000000
v -0.043342 -0.056569 0.056569
v -0.043342 -0.000000 0.080000
v -0.043342 0.056568 0.056568
v -0.043342 0.080000 -0.000000
v -0.043342 0.056568 -0.056569
v 0.020000 -0.021213 -0.021213
v 0.020000 -0.000000 -0.030000
v 0.020000 -0.030000 -0.000000
v 0.020000 -0.021213 0.021213
v 0.020000 -0.000000 0.030000
v 0.020000 0.021213 0.021213
v 0.020000 0.030000 -0.000000
v 0.020000 0.021213 -0.021213
v 0.020000 -0.021213 -0.021213
v 0.020000 -0.000000 -0.030000
v 0.020000 -0.030000 -0.000000
v 0.020000 -0.021213 0.021213
v 0.020000 -0.000000 0.030000
v 0.020000 0.021213 0.021213
v 0.020000 0.030000 -0.000000
v 0.020000 0.021213 -0.021213
v 0.030131 -0.000000 -0.021561
v 0.030131 0.015246 -0.015246
v 0.030131 -0.015246 -0.015246
v 0.030131 -0.021561 0.000000
v 0.030131 -0.015246 0.015246
v 0.030131 -0.000000 0.021561
v 0.030131 0.015246 0.015246
v 0.030131 0.021561 -0.000000
vt 0.953892 0.165383
vt 0.953891 0.389305
vt 0.795555 0.547642
vt 0.571632 0.547642
vt 0.413296 0.389305
vt 0.413295 0.165383
vt 0.571632 0.007045
vt 0.795555 0.007045
vt 0.318373 0.700349
vt 0.248221 0.707841
vt 0.228971 0.690219
vt 0.400584 0.681883
vt 0.240299 0.680116
vt 0.381929 0.680976
vt 0.299943 0.695900
vt 0.120075 0.703849
vt 0.340569 0.711825
vt 0.190490 0.712234
vt 0.378531 0.722850
vt 0.297421 0.732589
vt 0.361800 0.731216
vt 0.250419 0.733919
vt 0.298412 0.718597
vt 0.356936 0.735225
vt 0.253979 0.725643
vt 0.432485 0.711608
vt 0.569704 0.592517
vt 0.280962 0.516621
vt 0.075831 0.808999
vt 0.063330 0.706439
vt 0.036200 0.708126
vt 0.099552 0.822013
vt 0.357079 0.867679
vt 0.483413 0.782005
vt 0.589459 0.696814
vt 0.093244 0.608691
vt 0.143044 0.585154
vt 0.264006 0.386938
vt 0.507827 0.591384
vt 0.584829 0.700313
vt 0.464313 0.808634
vt 0.398063 0.978884
vt 0.353551 0.734292
vt 0.248303 0.726445
vt 0.172376 0.688575
vt 0.249264 0.676921
vt 0.409095 0.708095
vt 0.419655 0.724778
vt 0.183125 0.709573
vt 0.351437 0.689270
vt 0.419339 0.707302
vt 0.355242 0.688437
vt 0.211885 0.659244
vt 0.454013 0.670258
vt 0.421282 0.724843
vt 0.250784 0.678598
vt 0.175819 0.709288
vt 0.171506 0.688869
vt 0.012554 0.716577
vt 0.020919 0.680314
vt 0.556989 0.732973
vt 0.392828 0.752114
vt 0.582876 0.701313
vt 0.163194 0.744849
vn 1.0000 -0.0000 0.0000
vn 0.0000 -0.3827 -0.9239
vn 0.0000 -0.9239 -0.3827
vn 0.0000 -0.9239 0.3827
vn -0.0000 -0.3827 0.9239
vn 0.0000 0.3827 0.9239
vn 0.0000 0.9239 0.3827
vn -1.0000 -0.0000 0.0000
vn 0.0000 0.9239 -0.3827
vn 0.0000 0.3827 -0.9239
vn 0.9968 -0.0734 0.0304
vn 0.9968 0.0734 0.0304
vn 0.9968 -0.0304 0.0734
vn 0.9968 0.0734 -0.0304
vn 0.9968 -0.0734 -0.0304
vn 0.9968 0.0304 0.0734
vn 0.9968 0.0304 -0.0734
vn 0.9968 -0.0304 -0.0734
vn 0.0000 0.0000 1.0000
vn 0.6391 -0.5058 0.5794
vn 0.6391 -0.5794 -0.5058
vn 0.6391 0.7673 -0.0520
vn 0.6391 0.0520 0.7673
vn 0.6391 -0.7673 0.0520
vn 0.6391 -0.0520 -0.7673
vn 0.6391 0.5058 -0.5794
vn 0.6391 0.5794 0.5058
usemtl Material.001
s off
f 49/1/1 50/2/1 56/3/1 55/4/1 54/5/1 53/6/1 52/7/1 51/8/1
usemtl Material.001_NONE
f 1/9/2 2/10/2 4/11/2 3/12/2
f 3/12/3 4/11/3 6/13/3 5/14/3
f 5/14/4 6/13/4 8/15/4 7/16/4
f 7/16/5 8/15/5 10/17/5 9/18/5
f 9/18/6 10/17/6 12/19/6 11/20/6
f 11/20/7 12/19/7 14/21/7 13/22/7
f 16/23/8 14/21/8 39/24/8 40/25/8
f 13/22/9 14/21/9 16/23/9 15/26/9
f 15/26/10 16/23/10 2/10/10 1/9/10
f 5/14/11 7/16/11 20/27/11 19/28/11
f 24/29/10 17/30/10 25/31/10 32/32/10
f 11/20/12 13/22/12 23/33/12 22/34/12
f 7/16/13 9/18/13 21/35/13 20/27/13
f 13/22/14 15/26/14 24/29/14 23/33/14
f 3/12/15 5/14/15 19/28/15 18/36/15
f 9/18/16 11/20/16 22/34/16 21/35/16
f 15/26/17 1/9/17 17/30/17 24/29/17
f 1/9/18 3/12/18 18/36/18 17/30/18
f 25/31/8 26/37/8 27/38/8 28/39/8 29/40/8 30/41/8 31/42/8 32/32/8
f 22/34/7 23/33/7 31/42/7 30/41/7
f 20/27/5 21/35/5 29/40/5 28/39/5
f 18/36/3 19/28/3 27/38/3 26/37/3
f 23/33/9 24/29/9 32/32/9 31/42/9
f 21/35/6 22/34/6 30/41/6 29/40/6
f 19/28/4 20/27/4 28/39/4 27/38/4
f 17/30/2 18/36/2 26/37/2 25/31/2
f 40/25/19 39/24/19 47/43/19 48/44/19
f 6/13/8 4/11/8 33/45/8 35/46/8
f 12/19/8 10/17/8 37/47/8 38/48/8
f 2/10/8 16/23/8 40/25/8 34/49/8
f 4/11/8 2/10/8 34/49/8 33/45/8
f 8/15/8 6/13/8 35/46/8 36/50/8
f 14/21/8 12/19/8 38/48/8 39/24/8
f 10/17/8 8/15/8 36/50/8 37/47/8
f 45/51/20 44/52/20 52/53/20 53/54/20
f 38/48/19 37/47/19 45/51/19 46/55/19
f 36/50/19 35/46/19 43/56/19 44/52/19
f 33/45/19 34/49/19 42/57/19 41/58/19
f 34/49/19 40/25/19 48/44/19 42/57/19
f 39/24/19 38/48/19 46/55/19 47/43/19
f 37/47/19 36/50/19 44/52/19 45/51/19
f 35/46/19 33/45/19 41/58/19 43/56/19
f 43/56/21 41/58/21 49/59/21 51/60/21
f 48/44/22 47/43/22 55/61/22 56/62/22
f 46/55/23 45/51/23 53/54/23 54/63/23
f 44/52/24 43/56/24 51/60/24 52/53/24
f 41/58/25 42/57/25 50/64/25 49/59/25
f 42/57/26 48/44/26 56/62/26 50/64/26
f 47/43/27 46/55/27 54/63/27 55/61/27
